<?xml version="1.0" encoding="UTF-8" standalone="no"?>
<!-- Created with Inkscape (http://www.inkscape.org/) -->

<svg
   width="256"
   height="256"
   viewBox="0 0 67.733332 67.733333"
   version="1.1"
   id="svg1"
   xml:space="preserve"
   xmlns="http://www.w3.org/2000/svg"
   xmlns:svg="http://www.w3.org/2000/svg"><defs
     id="defs1" /><g
     id="layer1"><path
       style="fill:#ffe99a;fill-opacity:1;stroke-width:0.261414"
       d="M 45.08079,67.714376 C 42.623353,67.505754 40.797232,67.148569 38.682955,66.462971 34.466677,65.09576 30.19194,62.655691 25.818121,59.119576 22.689955,56.590537 19.066611,53.010825 15.865649,49.286947 6.4115771,38.288432 1.8157835,28.073023 2.3375135,19.216953 2.6083724,14.619273 4.0274712,10.696998 6.6851965,7.200309 7.3489187,6.3270688 9.201044,4.4592448 10.152073,3.7040458 c 0.399433,-0.317181 1.211199,-1.001694 1.803929,-1.521131 1.210849,-1.061134 1.725816,-1.43307705 2.441335,-1.76329505 2.534761,-1.169817 4.940821,0.08687 7.685377,4.01405905 0.607871,0.869805 2.832007,4.3589812 3.307428,5.1886202 0.50279,0.877404 1.257906,2.498624 1.492736,3.204887 0.737279,2.21738 0.684003,4.137662 -0.158741,5.721857 -0.37929,0.712993 -0.772732,1.225843 -1.436109,1.871967 -0.903439,0.879943 -2.83951,2.515866 -3.608448,3.049033 -0.412182,0.285799 -0.945843,0.686272 -1.185915,0.889939 -0.822406,0.697696 -1.445115,1.709256 -1.667476,2.708722 -0.166997,0.750614 -0.105721,2.167292 0.133172,3.079012 0.779633,2.975399 3.137093,6.703596 7.13881,11.289652 1.261121,1.445274 3.506152,3.733537 4.665303,4.755146 3.827386,3.373228 6.940687,4.636477 9.366227,3.800431 0.895035,-0.308505 1.607485,-0.825038 2.681807,-1.944335 1.360848,-1.417815 3.603309,-3.361618 4.476746,-3.880517 1.07743,-0.640091 2.021289,-0.898731 3.271007,-0.896334 1.926985,0.0037 3.857061,0.821959 6.348878,2.691639 1.015068,0.761634 4.617757,3.87238 5.523431,4.76921 2.080882,2.060567 3.007654,3.716541 3.004167,5.367906 -0.0024,1.068979 -0.482353,2.151196 -1.384752,3.121468 -0.18151,0.195161 -0.859137,0.816563 -1.505836,1.380893 -0.646699,0.56433 -1.48607,1.318596 -1.865269,1.676147 -3.029229,2.856293 -7.050306,4.713822 -11.483725,5.304887 -0.783542,0.104464 -3.432481,0.18844 -4.115365,0.130467 z"
       id="path1" /></g></svg>
