<?xml version="1.0" encoding="UTF-8" standalone="no"?>
<!-- Created with Inkscape (http://www.inkscape.org/) -->

<svg
   width="256"
   height="256"
   viewBox="0 0 67.733332 67.733333"
   version="1.1"
   id="svg1"
   xml:space="preserve"
   inkscape:version="1.3.2 (091e20ef0f, 2023-11-25, custom)"
   sodipodi:docname="mail.svg"
   xmlns:inkscape="http://www.inkscape.org/namespaces/inkscape"
   xmlns:sodipodi="http://sodipodi.sourceforge.net/DTD/sodipodi-0.dtd"
   xmlns="http://www.w3.org/2000/svg"
   xmlns:svg="http://www.w3.org/2000/svg"><sodipodi:namedview
     id="namedview1"
     pagecolor="#ffffff"
     bordercolor="#666666"
     borderopacity="1.0"
     inkscape:showpageshadow="2"
     inkscape:pageopacity="0.0"
     inkscape:pagecheckerboard="0"
     inkscape:deskcolor="#d1d1d1"
     inkscape:document-units="mm"
     inkscape:zoom="0.56063608"
     inkscape:cx="-498.54087"
     inkscape:cy="700.98949"
     inkscape:window-width="1912"
     inkscape:window-height="1054"
     inkscape:window-x="0"
     inkscape:window-y="18"
     inkscape:window-maximized="1"
     inkscape:current-layer="layer1" /><defs
     id="defs1" /><g
     inkscape:label="Layer 1"
     inkscape:groupmode="layer"
     id="layer1"><path
       style="fill:#ffe99a;stroke-width:0.706896"
       d="M 4.1888474,61.240117 C 2.4878299,60.707725 1.0056789,59.285231 0.34770822,57.553589 0.01798772,56.685838 1.6666659e-8,55.75328 1.6666659e-8,39.526989 1.6666659e-8,30.115654 0.03477202,22.415474 0.07726502,22.415474 c 0.042499,0 7.09130228,4.04865 15.66400998,8.996995 8.572716,4.948345 15.899018,9.156584 16.280671,9.351645 0.817724,0.417932 1.612756,0.451205 2.444894,0.102331 0.331011,-0.138778 7.909668,-4.473269 16.841452,-9.632199 8.931785,-5.158929 16.277251,-9.379871 16.323256,-9.379871 0.04602,0 0.06051,7.890455 0.03223,17.534345 l -0.05139,17.534339 -0.523711,1.06653 c -0.655739,1.335412 -2.062844,2.623865 -3.420043,3.131657 -1.01986,0.381582 -1.217544,0.384042 -29.869475,0.371608 -22.93524,-0.01 -29.0000246,-0.06171 -29.6103469,-0.252737 z M 16.603766,24.7943 0.00917482,15.214702 0.00458712,13.143898 c -0.0030397,-1.367985 0.091297,-2.351886 0.2779325,-2.89901 C 0.74312912,8.89461 1.8177579,7.6562548 3.1795605,6.906471 L 4.3952746,6.2371179 H 33.759455 63.123633 l 1.055149,0.5181692 c 1.240992,0.6094366 2.468723,1.8701933 3.015027,3.0961213 0.290258,0.6513486 0.408819,1.3756346 0.464614,2.8383516 l 0.07491,1.963843 -17.033948,9.819236 C 41.330711,29.873414 33.560343,34.310476 33.431893,34.332983 33.30345,34.355463 25.730787,30.063075 16.603766,24.7943 Z"
       id="path1" /></g></svg>
