<?xml version="1.0" encoding="UTF-8" standalone="no"?>
<svg
   width="256"
   height="256"
   viewBox="0 0 67.733332 67.733333"
   version="1.1"
   id="svg1"
   xml:space="preserve"
   sodipodi:docname="map.svg"
   inkscape:version="1.3.2 (091e20ef0f, 2023-11-25, custom)"
   xmlns:inkscape="http://www.inkscape.org/namespaces/inkscape"
   xmlns:sodipodi="http://sodipodi.sourceforge.net/DTD/sodipodi-0.dtd"
   xmlns="http://www.w3.org/2000/svg"
   xmlns:svg="http://www.w3.org/2000/svg"><sodipodi:namedview
     id="namedview1"
     pagecolor="#ffffff"
     bordercolor="#666666"
     borderopacity="1.0"
     inkscape:showpageshadow="2"
     inkscape:pageopacity="0.0"
     inkscape:pagecheckerboard="0"
     inkscape:deskcolor="#d1d1d1"
     inkscape:zoom="3.4765625"
     inkscape:cx="128"
     inkscape:cy="128"
     inkscape:window-width="1912"
     inkscape:window-height="1054"
     inkscape:window-x="0"
     inkscape:window-y="18"
     inkscape:window-maximized="1"
     inkscape:current-layer="layer1" /><defs
     id="defs1" /><g
     id="layer1"><path
       style="fill:#ffe99a"
       d="m 32.781485,67.589864 c -0.97488,-0.19006 -1.79507,-1.08087 -4.75102,-5.16006 -9.1677,-12.65139 -15.39638,-23.395477 -17.8915,-30.861768 C 8.7997249,27.56057 8.5169349,24.19317 9.2115649,20.525184 11.060005,10.764605 18.062225,3.2712159 27.762295,0.67321089 c 3.35141,-0.897616 8.87404,-0.897616 12.22544,0 9.70007,2.59800501 16.70229,10.09139411 18.55073,19.85197311 1.1945,6.307507 -0.58772,12.588712 -6.58478,23.207094 -2.62931,4.655454 -8.16483,13.099926 -12.42314,18.951546 -2.50435,3.44138 -3.24992,4.26519 -4.20662,4.64798 -1.17108,0.46858 -1.36279,0.48804 -2.54244,0.25806 z m 5.40477,-26.489327 c 2.68823,-0.700193 5.18307,-2.164683 7.33616,-4.306367 2.42999,-2.41713 3.69244,-4.60686 4.50225,-7.809229 2.66516,-10.539268 -5.34757,-20.6791551 -16.29874,-20.6256001 -5.68552,0.0278 -10.69182,2.7849911 -13.88391,7.6464801 -1.90558,2.902152 -2.51961,5.155292 -2.49395,9.151316 0.0186,2.886931 0.13831,3.736232 0.75752,5.371759 1.94446,5.135922 6.31499,9.208162 11.33021,10.556923 2.14347,0.576452 6.56527,0.583889 8.75046,0.01472 z m -6.45718,-7.997192 c -7.43608,-2.078319 -8.47478,-12.078395 -1.62243,-15.620046 2.18762,-1.130676 5.34913,-1.130676 7.53674,0 6.23217,3.221109 6.03706,12.34115 -0.32413,15.151776 -1.68842,0.746005 -3.92588,0.933429 -5.59018,0.46827 z"
       id="path1" /></g></svg>
