<?xml version="1.0" encoding="UTF-8" standalone="no"?>
<!-- Created with Inkscape (http://www.inkscape.org/) -->

<svg
   width="256"
   height="256"
   viewBox="0 0 67.733334 67.733333"
   version="1.1"
   id="svg1"
   xml:space="preserve"
   xmlns="http://www.w3.org/2000/svg"
   xmlns:svg="http://www.w3.org/2000/svg"><defs
     id="defs1" /><g
     id="layer1"><g
       id="g1"
       transform="translate(10.230363,10.541202)"><path
         id="rect7"
         style="opacity:1;fill:#ffe99a;stroke-width:3.53946;stroke-miterlimit:10;paint-order:stroke fill markers;fill-opacity:1"
         d="m 23.740826,-10.541021 c -3.799924,-0.01199 -7.586615,0.5723541 -10.551058,1.7556722 -2.147801,0.8573323 -7.0321908,3.6301526 -7.3766098,4.1874364 -0.135477,0.2191681 0.284144,0.9627397 0.932429,1.6526702 1.200476,1.2775934 7.1108088,9.0762914 7.8319878,10.3342234 0.353126,0.615953 0.593763,0.50262 2.200208,-1.037759 2.161588,-2.072705 3.991511,-2.994884 7.089289,-3.570977 2.841389,-0.528413 5.567233,0.225636 8.441472,2.334185 3.399081,2.493609 5.41605,8.3462118 4.611831,13.3832208 -0.490927,3.074745 -2.012458,6.225235 -3.73749,7.739826 -1.460986,1.28275 -4.939795,3.198467 -5.808351,3.198467 -0.312647,0 -0.793563,-1.198036 -1.234465,-3.073006 -0.397441,-1.690143 -0.800037,-3.258962 -0.894482,-3.486562 -0.09442,-0.227614 0.644013,-0.810483 1.641048,-1.294875 2.141057,-1.04021 2.956845,-2.594795 2.956845,-5.634105 0,-4.152176 -2.774804,-6.8212218 -6.128986,-5.895092 -1.421571,0.39252 -4.973499,3.938407 -4.973499,4.964983 0,0.309758 0.512972,1.583614 1.139991,2.831378 2.689037,5.351244 4.807764,13.585133 4.807764,18.683538 0,6.32815 -4.482048,9.485188 -8.480962,5.974086 -1.615991,-1.418857 -4.040427,-6.531591 -4.802354,-10.128221 -0.710748,-3.355031 -0.73059,-10.379767 -0.04181,-14.585163 l 0.510349,-3.117924 -1.686742,-2.235055 C 8.3125572,9.9554712 3.0292272,4.5154542 0.95427616,2.9328112 l -1.341349,-1.023818 -0.80541796,0.975803 c -1.163519,1.409188 -3.2900535,6.139904 -4.0077704,8.9154368 -0.9555672,3.695375 -1.4021789,8.728775 -1.0153033,11.446329 0.1896837,1.332415 1.2353196,6.526425 2.3241167,11.542361 4.22042796,19.44281 4.949115,22.403208 5.510973,22.403208 0.299685,0 3.784038,-0.791793 7.742924,-1.759544 C 13.321319,54.464852 19.415087,53.018653 22.904431,52.218632 34.122881,49.646476 36.866079,48.593818 41.568608,45.060416 46.82703,41.109328 51.083112,34.524794 52.853853,27.601279 53.808056,23.87037 53.892745,17.295936 53.032746,13.648063 50.59773,3.3193292 43.634118,-5.0261627 34.370892,-8.7179712 31.354281,-9.9202247 27.540764,-10.528991 23.740826,-10.541021 Z m -7.511353,33.236177 c -0.491286,0 0.04871,6.370043 0.789937,9.318148 0.329028,1.308512 0.98509,3.003622 1.457509,3.766911 l 0.858859,1.38781 0.127085,-2.180844 c 0.06999,-1.199471 -0.08033,-3.251448 -0.334558,-4.559945 -0.54759,-2.818741 -2.389682,-7.73208 -2.898757,-7.73208 z" /></g></g></svg>
