<?xml version="1.0" encoding="UTF-8" standalone="no"?>
<!-- Created with Inkscape (http://www.inkscape.org/) -->

<svg
   width="64"
   height="64"
   viewBox="0 0 16.933333 16.933333"
   version="1.1"
   id="svg1"
   sodipodi:docname="logo.svg"
   inkscape:version="1.3.2 (091e20ef0f, 2023-11-25, custom)"
   xmlns:inkscape="http://www.inkscape.org/namespaces/inkscape"
   xmlns:sodipodi="http://sodipodi.sourceforge.net/DTD/sodipodi-0.dtd"
   xmlns="http://www.w3.org/2000/svg"
   xmlns:svg="http://www.w3.org/2000/svg">
  <sodipodi:namedview
     id="namedview1"
     pagecolor="#ffffff"
     bordercolor="#666666"
     borderopacity="1.0"
     inkscape:showpageshadow="2"
     inkscape:pageopacity="0.0"
     inkscape:pagecheckerboard="0"
     inkscape:deskcolor="#d1d1d1"
     inkscape:zoom="11.09375"
     inkscape:cx="31.95493"
     inkscape:cy="32"
     inkscape:window-width="1592"
     inkscape:window-height="874"
     inkscape:window-x="0"
     inkscape:window-y="18"
     inkscape:window-maximized="1"
     inkscape:current-layer="layer1" />
  <defs
     id="defs1" />
  <g
     id="layer1">
    <path
       style="font-size:22.202px;line-height:1.25;font-family:Courgette;-inkscape-font-specification:Courgette;stroke-width:0.346906"
       d="M 11.624215,9.7567247 Q 11.309831,9.7458839 10.962925,9.7242023 10.62686,9.6916798 10.160704,9.680839 9.1416672,9.6591574 7.949177,9.7675656 7.6781565,10.699876 7.0493889,12.065819 q -0.6179268,1.355103 -1.2250127,2.298254 -1.3008984,2.016393 -2.6451601,2.493389 -0.1951348,0.07589 -0.4011104,0.07589 -0.1951347,0 -0.357747,-0.07589 Q 2.2577464,16.792417 2.1493382,16.684009 1.921681,16.478033 1.921681,16.228694 q 0,-0.249339 0.1626123,-0.368588 1.5393964,-1.116604 3.1655194,-5.626385 -0.119249,0.03252 -0.238498,0.06505 -0.119249,0.03252 -0.2059756,0.06504 -0.086727,0.03252 -0.2059756,0.03252 -0.1084082,0 -0.2493388,-0.06504 -0.1300899,-0.07589 -0.2384981,-0.173453 -0.238498,-0.2168163 -0.238498,-0.4227919 0,-0.2059756 0.1842939,-0.3794287 Q 4.2524573,9.1713204 4.5343186,9.0087081 5.054678,8.7051652 5.8460578,8.4449855 L 6.4314621,6.6237277 Q 7.46134,3.4256858 8.4044914,2.1898323 7.5155442,2.1139465 7.0927522,2.1139465 q -1.2792168,0 -1.8429395,0.3577471 -0.5528818,0.3577471 -0.780539,0.780539 -0.2168164,0.4119512 -0.2276572,0.5745635 -0.032522,0.303543 -0.1951348,0.3902695 -0.1626123,0.075886 -0.4011103,0.075886 -0.2276573,0 -0.4769961,-0.1626123 Q 2.9190364,3.956886 2.7564241,3.6967063 2.4095179,3.1655061 2.4854036,2.5042161 2.5612893,1.8320852 2.9190364,1.3550891 3.2876243,0.86725221 3.786302,0.56370925 4.7077717,-1.3401732e-5 5.7268088,-1.3401732e-5 q 1.0298779,0 1.9405068,0.108408201732 0.9214697,0.0975674 1.8320986,0.22765722 2.4175028,0.32522461 3.0787928,0.32522461 0.66129,0 0.975674,-0.0758857 0.325225,-0.0758857 0.552882,-0.22765723 0.227657,-0.15177148 0.314384,-0.19513476 0.09757,-0.0542041 0.303543,-0.0542041 0.325224,0 0.281861,0.49867773 -0.04336,0.48783687 -0.238498,0.84558397 -0.195135,0.3469062 -0.509519,0.5745635 -0.639608,0.4661552 -1.626123,0.4661552 -0.986514,0 -2.395821,-0.1300898 Q 9.8788429,3.0896203 9.5536183,4.2712697 L 8.5562629,7.8487404 Q 9.5753,7.6861281 10.1065,7.6861281 q 0.542041,0 0.888947,0.1084082 0.346907,0.1084082 0.617927,0.3035429 0.628768,0.422792 0.617927,1.0407188 -0.01084,0.6179267 -0.607086,0.6179267 z"
       id="text1"
       aria-label="F" />
  </g>
</svg>
